<?xml version="1.0" standalone="no"?>
<!DOCTYPE svg PUBLIC "-//W3C//DTD SVG 20010904//EN"
 "http://www.w3.org/TR/2001/REC-SVG-20010904/DTD/svg10.dtd">
<svg version="1.0" xmlns="http://www.w3.org/2000/svg"
 width="144.000000pt" height="144.000000pt" viewBox="0 0 144.000000 144.000000"
 preserveAspectRatio="xMidYMid meet">

<g transform="translate(0.000000,144.000000) scale(0.100000,-0.100000)"
fill="#000000" stroke="none">
<path d="M623 1310 c-288 -52 -494 -292 -497 -580 0 -52 5 -120 13 -150 34
-140 133 -280 254 -360 146 -96 349 -122 512 -66 188 64 317 193 381 381 23
67 27 97 27 185 0 88 -4 118 -27 185 -64 186 -195 318 -377 379 -85 29 -208
40 -286 26z m46 -121 c3 -11 1 -12 -10 -2 -22 18 -41 0 -37 -33 3 -25 7 -29
31 -27 15 1 25 -2 22 -8 -9 -13 -49 -11 -63 3 -21 21 -15 68 11 78 27 11 39 8
46 -11z m146 7 c16 -12 17 -16 6 -30 -8 -10 -11 -26 -7 -42 8 -31 -11 -24 -24
10 -9 21 -9 21 -9 -2 -1 -13 -6 -22 -12 -20 -13 4 -13 7 -4 58 7 42 19 49 50
26z m165 -59 c0 -5 -6 -4 -14 2 -11 9 -16 9 -22 0 -4 -7 -2 -15 4 -17 7 -2 12
-8 12 -14 0 -5 -8 -7 -19 -3 -12 3 -21 0 -25 -10 -5 -14 5 -20 27 -16 5 1 6
-3 2 -9 -8 -13 -16 -12 -39 5 -18 13 -18 15 3 43 12 17 21 35 21 41 0 7 8 7
25 -1 14 -6 25 -16 25 -21z m-475 13 c3 -6 -1 -7 -9 -4 -11 4 -16 0 -16 -11 0
-11 5 -15 15 -12 8 4 17 2 20 -3 4 -6 -1 -10 -9 -10 -21 0 -21 -19 0 -27 9 -3
20 0 25 8 7 11 9 11 9 -3 0 -10 -7 -19 -15 -19 -8 -1 -19 -2 -25 -3 -5 -1 -18
16 -29 37 -17 34 -18 38 -2 47 21 12 28 12 36 0z m584 -94 c14 -15 20 -29 15
-37 -5 -9 -9 -8 -14 5 -5 17 -9 16 -37 -8 -41 -34 -50 -22 -10 15 27 24 30 30
17 39 -8 5 -10 10 -4 10 6 0 21 -11 33 -24z m-716 7 c-7 -2 -13 -11 -13 -19 0
-10 7 -13 23 -9 31 8 55 -18 37 -40 -7 -8 -20 -14 -29 -14 -13 1 -13 2 2 6 9
2 17 11 17 20 0 11 -6 14 -24 9 -31 -8 -54 17 -36 39 7 8 18 15 24 14 7 0 6
-2 -1 -6z m462 -103 c23 -9 35 -45 35 -101 0 -37 -25 -39 -34 -3 -18 71 -111
100 -161 49 -48 -47 -27 -87 76 -141 123 -65 155 -117 129 -209 -26 -95 -124
-137 -240 -105 -59 16 -70 30 -77 91 -7 75 9 84 39 22 27 -55 55 -73 118 -73
66 1 107 42 94 95 -8 31 -64 82 -118 105 -95 40 -131 100 -108 179 28 91 139
132 247 91z m-306 -591 c17 -6 31 -15 31 -21 0 -6 -7 -8 -15 -4 -11 4 -21 -5
-32 -29 -9 -19 -20 -35 -25 -35 -11 0 -9 11 7 40 19 34 19 51 -2 43 -11 -4
-14 -3 -9 5 9 14 6 14 45 1z m427 -24 c15 -23 15 -27 0 -50 -19 -29 -42 -32
-68 -8 -22 20 -23 41 -1 65 23 25 50 23 69 -7z m-288 -27 c28 -28 7 -78 -33
-78 -27 0 -45 18 -45 45 0 27 18 45 45 45 12 0 26 -5 33 -12z m133 2 c41 -23
16 -90 -34 -90 -15 0 -32 73 -22 91 8 12 32 12 56 -1z"/>
<path d="M787 1186 c-3 -8 -2 -18 3 -21 13 -8 24 15 12 27 -6 6 -11 4 -15 -6z"/>
<path d="M890 331 c0 -11 7 -27 16 -36 15 -15 18 -15 33 -1 20 20 5 49 -28 54
-15 3 -21 -2 -21 -17z"/>
<path d="M614 306 c-10 -26 0 -51 21 -51 16 0 20 7 20 30 0 33 -30 49 -41 21z"/>
<path d="M763 284 c7 -42 11 -49 26 -39 17 10 13 62 -5 69 -25 10 -27 8 -21
-30z"/>
</g>
</svg>
